<svg width="202" height="64" viewBox="0 0 202 64" fill="none" xmlns="http://www.w3.org/2000/svg">
<path d="M183.008 19.7517C182.319 16.9225 180.44 14.5027 177.816 12.7344C175.508 16.7363 172.94 20.5707 170.092 24.1818C173.014 25.4289 173.628 28.3699 173.535 30.5849C173.275 36.5227 168.529 39.2589 164.174 40.0779C164.081 40.0965 164.025 40.171 164.025 40.264C164.025 40.3757 164.118 40.4502 164.211 40.4502C172.716 40.3199 179.267 38.1607 182.171 31.739C183.604 28.5002 184.162 24.5168 183.008 19.7517Z" fill="white"/>
<path d="M160.136 34.9966C156.283 38.589 152.133 41.8837 147.722 44.806C147.499 54.8016 147.555 55.8811 146.903 61.3722L162.164 61.9678C160.526 56.4209 160.303 45.4016 160.229 43.2611L160.136 34.9966Z" fill="white"/>
<path d="M124.57 62.6562H126.45C135.29 62.6562 142.567 55.9925 143.553 47.4302C134.471 52.8095 124.421 56.6998 113.739 58.8217C116.698 61.2229 120.476 62.6562 124.57 62.6562Z" fill="white"/>
<path d="M162.611 9.75621L159.261 10.3891C155.613 11.2453 151.761 12.1388 147.759 13.0136C147.908 14.7633 148.299 22.6741 147.927 36.5413C147.834 39.8546 147.778 42.5722 147.722 44.8244C152.133 41.9021 156.283 38.6074 160.136 35.015L160.024 24.8892C164.863 23.2698 168.045 23.307 170.074 24.1818C172.921 20.5708 175.489 16.7363 177.797 12.7344C173.889 10.0726 168.324 8.84414 162.611 9.75621Z" fill="white"/>
<path d="M131.531 30.0453V44.8618C131.512 49.8875 129.335 51.9722 125.333 51.9722C121.909 51.9722 119.136 48.7148 119.136 44.7873V38.9054C115.358 41.1763 111.413 43.1866 107.337 44.9363V45.4388C107.337 50.8554 109.831 55.6764 113.72 58.8221C124.403 56.7001 134.453 52.7912 143.535 47.4305C143.609 46.779 143.646 46.1089 143.646 45.4388V17.7603C139.999 22.2089 135.942 26.3226 131.531 30.0453Z" fill="white"/>
<path d="M106.63 21.7434C107.058 25.0753 107.3 28.4443 107.3 31.8134L107.355 44.9361C111.45 43.205 115.395 41.1761 119.155 38.9052V18.4302C115.302 19.0444 110.445 19.7517 106.425 20.2915L106.63 21.7434Z" fill="white"/>
<path d="M131.531 16.2898V30.0454C135.941 26.3226 139.999 22.209 143.665 17.7603V13.8887C139.757 14.7077 135.718 15.5267 131.531 16.2898Z" fill="white"/>
<path d="M71.4367 32.0181H61.8708V60.9251H71.4367V32.0181Z" fill="white"/>
<path d="M61.8708 22.4136L61.8895 29.0401H71.4367L71.4181 22.73C68.1427 22.7114 64.9602 22.5997 61.8708 22.4136Z" fill="white"/>
<path d="M53.4031 34.3637C47.0754 29.3753 38.1237 30.7527 33.3965 37.435C28.6694 44.1173 29.9722 53.5917 36.2998 58.5801C42.6275 63.5686 51.5792 62.1912 56.3063 55.5089C61.0149 48.8266 59.7307 39.3522 53.4031 34.3637ZM45.0841 53.7406C41.6783 53.7406 39.8172 50.4832 39.8172 46.444C39.8172 42.4048 41.6411 39.1474 45.0469 39.1288C48.4526 39.1288 50.3137 42.3862 50.3137 46.4254C50.3323 50.4646 48.5084 53.7406 45.0841 53.7406Z" fill="white"/>
<path d="M11.9383 11.2642C12.0872 12.7719 12.5339 16.6063 13.7622 25.2244C15.493 37.435 17.5774 49.1058 15.0277 53.0705C12.8688 56.421 8.71865 56.8677 5.98288 56.4582C4.01014 56.1604 1.86991 55.0622 0.827708 54.4852C0.641601 54.3735 0.418271 54.5782 0.529936 54.783C1.34881 56.3093 3.63792 60.0693 7.11813 61.5398C11.473 63.3825 15.3627 63.5314 19.5873 62.0982C23.8119 60.6649 27.3666 57.1842 27.7016 51.3581C27.9621 46.8908 27.5899 22.3952 27.4969 16.718C21.1506 14.8938 15.9396 12.958 11.9383 11.2642Z" fill="white"/>
<path d="M190.378 2.55274C188.963 2.88779 187.419 3.27868 185.744 3.70679C187.177 23.9399 187.326 42.628 186.767 53.0517C189.131 52.4374 192.332 51.9163 194.77 51.8418C195.458 42.4233 196.631 31.7018 197.394 26.4713C199.497 11.841 200.763 3.83709 201.321 0.393555C198.604 0.765829 195.049 1.41731 190.378 2.55274Z" fill="white"/>
<path d="M186.544 57.0724L185.837 62.8426L194.956 63.3824L194.64 56.2534C194.64 56.2534 192.704 56.3093 190.024 56.5699C187.958 56.7932 186.544 57.0724 186.544 57.0724Z" fill="white"/>
<path d="M94.0859 31.3667C92.2807 31.3667 90.6429 31.7204 89.1541 32.3905C87.6838 33.0792 86.1391 34.0657 84.52 35.35V32.1485H75.438V61.0555H84.52V40.5805C85.5064 39.9662 86.4369 39.5381 87.2744 39.2589C88.1119 38.9797 88.9494 38.8494 89.7682 38.8494C90.9221 38.8494 91.834 38.9983 92.4668 39.2961C93.0996 39.594 93.6021 40.0407 93.937 40.6922C94.2162 41.2506 94.4209 42.0882 94.5512 43.2608C94.6629 44.4149 94.7187 45.5876 94.7187 46.7416V61.0742H103.801V42.2371C103.801 38.626 102.945 35.9084 101.232 34.0843C99.5202 32.2788 97.1195 31.3667 94.0859 31.3667Z" fill="white"/>
</svg>
