<svg width="190" height="39" viewBox="0 0 190 39" fill="none" xmlns="http://www.w3.org/2000/svg">
<path fill-rule="evenodd" clip-rule="evenodd" d="M190 0H0V39H190V0ZM34.0084 24.19C33.0364 24.892 31.7224 25.234 30.0664 25.234C28.5904 25.234 27.2764 25.036 26.1424 24.622V21.706C27.1324 22.21 28.5904 22.498 29.6524 22.498C31.2184 22.498 32.0284 21.958 32.0284 21.112C32.0284 20.338 31.2904 19.942 30.2644 19.942H28.7344V17.692H30.1564C31.0204 17.692 31.7404 17.278 31.7404 16.72C31.7404 16.018 30.9664 15.676 29.8144 15.676C29.3104 15.676 28.7164 15.73 28.0144 15.856C27.3124 15.982 26.8084 16.108 26.5024 16.252V13.444C27.6184 13.048 28.9144 12.85 30.3904 12.85C31.7044 12.85 33.1084 13.102 34.0804 13.858C34.7104 14.308 35.1244 15.118 35.1244 16.072C35.1244 17.026 34.4404 18.106 33.3424 18.592V18.628C34.7284 19.006 35.4664 20.194 35.4664 21.4C35.4664 22.57 34.9804 23.488 34.0084 24.19ZM42.6632 12.85L48.4592 25H45.0032L44.4272 23.668H40.3052L39.7112 25H36.3272L42.2492 12.85H42.6632ZM43.4372 21.4L42.4292 19.042H42.3572L41.3132 21.4H43.4372ZM59.7537 21.328C59.7537 24.118 57.0898 25 55.5057 25H49.6377V19.078C49.6558 16.432 49.6558 14.452 49.6558 13.138H58.5478V15.64H53.2018V17.566H55.1097C56.7118 17.566 57.9358 18.016 58.5658 18.574C58.8717 18.844 59.1237 19.15 59.3218 19.528C59.6997 20.266 59.7537 20.77 59.7537 21.328ZM56.2077 21.202C56.2077 20.41 55.5957 19.906 54.7318 19.906H53.2018V22.48H54.4798C55.6318 22.48 56.2077 22.048 56.2077 21.202ZM64.8904 21.22V25H61.3624V13.138H66.2404C67.7524 13.138 68.9044 13.534 69.6964 14.326C70.5064 15.1 70.9024 16.054 70.9024 17.17C70.9024 18.304 70.5064 19.276 69.6964 20.05C68.9044 20.824 67.8244 21.22 66.4564 21.22H64.8904ZM67.4284 17.224C67.4284 16.36 66.8524 15.712 65.7544 15.712H64.8724V18.7H65.3944C66.7444 18.7 67.4284 18.214 67.4284 17.224ZM83.0976 23.47C81.8736 24.64 80.3076 25.216 78.3996 25.216C76.4376 25.216 74.8716 24.64 73.6656 23.47C72.4776 22.3 71.8836 20.842 71.8836 19.06C71.8836 17.314 72.4956 15.856 73.7196 14.668C74.9616 13.48 76.5276 12.886 78.4356 12.886C80.3616 12.886 81.9096 13.48 83.1156 14.668C84.3216 15.838 84.9336 17.314 84.9336 19.06C84.9336 20.824 84.3216 22.3 83.0976 23.47ZM80.6496 16.72C80.1096 16.09 79.3716 15.766 78.4536 15.766C77.5536 15.766 76.8156 16.09 76.2576 16.72C75.6996 17.35 75.4116 18.124 75.4116 19.06C75.4116 20.032 75.6816 20.842 76.2396 21.472C76.7976 22.102 77.5356 22.426 78.4536 22.426C79.3716 22.426 80.0916 22.102 80.6316 21.472C81.1896 20.842 81.4596 20.032 81.4596 19.06C81.4596 18.124 81.1896 17.35 80.6496 16.72ZM93.802 13.138H97.348V25H93.802V20.212H90.238V25H86.71V13.138H90.238V17.53H93.802V13.138ZM104.962 20.104H103V25H99.4542V13.138H103V17.728H104.998C105.25 16.306 105.934 15.136 107.068 14.236C108.202 13.336 109.57 12.886 111.208 12.886C113.134 12.886 114.664 13.48 115.798 14.65C116.95 15.82 117.526 17.296 117.526 19.06C117.526 20.842 116.95 22.3 115.78 23.47C114.628 24.64 113.098 25.216 111.172 25.216C109.48 25.216 108.058 24.748 106.924 23.794C105.79 22.84 105.124 21.598 104.962 20.104ZM114.052 19.132C114.052 17.26 113.008 15.892 111.208 15.892C110.344 15.892 109.642 16.198 109.12 16.828C108.598 17.44 108.346 18.214 108.346 19.132C108.346 20.05 108.616 20.806 109.138 21.436C109.678 22.048 110.362 22.354 111.208 22.354C112.09 22.354 112.774 22.048 113.278 21.436C113.8 20.824 114.052 20.05 114.052 19.132ZM128.642 16.144C128.642 17.134 128.228 17.944 127.418 18.538V18.61C128.714 19.186 129.362 20.284 129.362 21.49C129.362 22.444 129.002 23.272 128.3 23.974C127.598 24.658 126.698 25 125.582 25H119.318V13.12H125.186C126.23 13.12 127.058 13.408 127.688 13.984C128.318 14.56 128.642 15.28 128.642 16.144ZM124.646 22.354C125.654 22.354 125.996 21.796 125.996 21.166C125.996 20.464 125.438 20.014 124.556 20.014H122.756V22.354H124.646ZM125.348 16.72C125.348 16.126 124.916 15.694 124.196 15.694H122.738V17.746H124.16C124.736 17.746 125.348 17.44 125.348 16.72ZM136.548 12.85L142.344 25H138.888L138.312 23.668H134.19L133.596 25H130.212L136.134 12.85H136.548ZM137.322 21.4L136.314 19.042H136.242L135.198 21.4H137.322ZM141.059 13.12H151.049V15.784H147.809V25H144.281V15.784H141.059V13.12ZM162.932 12.832H163.346V25H159.836V18.988H159.764L152.708 25.27H152.312V13.138H155.84V19.114H155.912L162.932 12.832Z" fill="white"/>
</svg>
