<svg width="407" height="783" viewBox="0 0 407 783" fill="none" xmlns="http://www.w3.org/2000/svg">
<path d="M355.137 779.871H50.2275C25.0514 779.871 4.64355 759.442 4.64355 734.238V49.4339C4.64355 24.2306 25.0514 3.80078 50.2275 3.80078H355.137C380.313 3.80078 400.721 24.2306 400.721 49.4339V734.235C400.721 759.439 380.313 779.871 355.137 779.871Z" fill="white"/>
<path d="M350.742 782.697H54.6222C47.4944 782.697 40.5808 781.3 34.0697 778.541C27.7815 775.878 22.136 772.067 17.2866 767.215C12.4373 762.36 8.63018 756.709 5.97245 750.414C3.21918 743.895 1.8208 736.971 1.8208 729.839V53.8336C1.8208 46.6981 3.21628 39.777 5.97245 33.2588C8.63307 26.9638 12.4402 21.3122 17.2866 16.4576C22.136 11.603 27.7815 7.79181 34.0697 5.13121C40.5808 2.37496 47.4973 0.975098 54.6222 0.975098H350.742C357.87 0.975098 364.784 2.37206 371.295 5.13121C377.583 7.79471 383.229 11.6059 388.078 16.4576C392.927 21.3122 396.734 26.9638 399.392 33.2588C402.145 39.777 403.544 46.701 403.544 53.8336V729.839C403.544 736.974 402.148 743.895 399.392 750.414C396.731 756.709 392.924 762.36 388.078 767.215C383.229 772.069 377.583 775.881 371.295 778.541C364.787 781.298 357.87 782.697 350.742 782.697ZM54.6222 6.62671C42.0255 6.62671 30.1844 11.5364 21.279 20.4543C12.3736 29.3723 7.46631 41.2262 7.46631 53.8336V729.839C7.46631 742.449 12.3707 754.303 21.279 763.218C30.1844 772.133 42.0284 777.046 54.6222 777.046H350.742C363.339 777.046 375.18 772.136 384.085 763.218C392.991 754.303 397.898 742.446 397.898 729.839V53.8336C397.898 41.2233 392.994 29.3694 384.085 20.4543C375.18 11.5393 363.336 6.62671 350.742 6.62671H54.6222Z" fill="#1D1D1B"/>
<path d="M271.996 37.1308H135.369C116.979 37.1308 102.072 22.2076 102.072 3.79785H305.29C305.293 22.2076 290.386 37.1308 271.996 37.1308Z" fill="#1D1D1B"/>
<path d="M6.48868 171.112H5.37405C2.86394 171.112 0.828613 169.074 0.828613 166.561V142.512C0.828613 139.999 2.86394 137.961 5.37405 137.961H6.48868V171.112Z" fill="#1D1D1B"/>
<path d="M401.009 158.56H402.123C404.633 158.56 406.669 160.597 406.669 163.11V194.031C406.669 196.544 404.633 198.582 402.123 198.582H401.009V158.56Z" fill="#1D1D1B"/>
<path d="M6.48868 224.854H5.37405C2.86394 224.854 0.828613 222.817 0.828613 220.304V196.254C0.828613 193.742 2.86394 191.704 5.37405 191.704H6.48868V224.854Z" fill="#1D1D1B"/>
<path d="M221.041 23.2946H159.642C158.081 23.2946 156.816 22.0281 156.816 20.4659C156.816 18.9037 158.081 17.6372 159.642 17.6372H221.041C222.602 17.6372 223.867 18.9037 223.867 20.4659C223.867 22.0281 222.602 23.2946 221.041 23.2946Z" fill="black"/>
<path d="M239.428 23.1727C240.922 23.1727 242.132 21.9608 242.132 20.4658C242.132 18.9707 240.922 17.7588 239.428 17.7588C237.935 17.7588 236.724 18.9707 236.724 20.4658C236.724 21.9608 237.935 23.1727 239.428 23.1727Z" fill="black"/>
<path d="M247.845 23.1727C249.338 23.1727 250.549 21.9608 250.549 20.4658C250.549 18.9707 249.338 17.7588 247.845 17.7588C246.351 17.7588 245.141 18.9707 245.141 20.4658C245.141 21.9608 246.351 23.1727 247.845 23.1727Z" fill="black"/>
<path d="M211.424 85.3727C206.887 88.6303 204.973 88.5521 201.65 84.8423C200.712 86.5059 199.47 87.8043 197.431 87.7C195.353 87.5928 194.169 86.2654 193.404 84.083C191.85 86.3262 190.075 87.871 187.475 87.7116C184.681 87.5406 183.439 85.5176 182.521 83.0483C180.828 85.0974 180.023 88.4014 176.445 87.5319C173.321 86.7726 173.054 83.9149 172.406 81.2601C171.343 81.7238 171.193 82.7817 170.692 83.5091C168.06 87.3406 163.909 88.8071 159.618 87.2595C158.836 86.9783 157.826 86.7726 157.82 85.6104C157.814 84.7496 158.364 84.1525 158.929 83.5903C159.771 82.7527 160.362 83.5439 160.973 83.9641C162.041 84.6974 163.173 85.3263 164.323 84.3148C165.588 83.2019 165.405 81.7615 164.67 80.4398C163.758 78.7994 162.394 77.5561 160.759 76.4982C159.453 78.6487 158.179 80.7413 156.911 82.8367C156.04 84.2829 155.035 85.6306 153.712 86.6827C151.361 88.5492 149.375 87.8913 148.692 84.964C147.878 81.4745 148.399 77.9358 148.466 74.4144C148.483 73.5043 148.958 72.5537 148.24 71.4349C144.992 75.023 143.73 79.3646 142.554 83.7468C142.349 84.5119 142.097 85.2915 142.079 86.0683C142.053 87.3058 141.544 87.8681 140.313 87.7377C139.181 87.6189 138.182 87.2856 138.177 85.8973C138.148 80.3326 138.148 74.7709 138.122 69.2062C138.116 68.1802 138.683 68.0643 139.508 68.2121C140.655 68.4179 141.836 68.5106 141.807 70.151C141.769 72.3537 141.799 74.5564 141.799 76.933C142.983 76.4171 142.846 75.3215 143.2 74.5419C144.071 72.6145 144.885 70.664 146.489 69.183C147.739 68.0266 149.1 67.873 150.62 68.5773C152.036 69.2352 152.722 70.1945 152.647 71.8755C152.499 75.2259 152.539 78.585 152.56 81.9412C152.563 82.5788 152.276 83.5033 153.226 83.7265C154.056 83.9236 154.482 83.1584 154.832 82.5875C156.21 80.3413 157.499 78.043 158.874 75.7968C159.401 74.936 158.854 74.3883 158.567 73.6666C157.71 71.519 158.761 69.1337 160.875 68.1425C161.966 67.6295 163.101 67.4353 164.097 68.2382C165.188 69.1163 164.728 70.4322 164.134 71.119C162.073 73.5072 163.231 74.7622 165.382 76.0548C167.62 77.4025 169.221 79.295 169.085 82.544C171.094 80.4717 172.226 78.5154 172.221 75.9881C172.215 73.7796 172.111 71.5567 172.319 69.3656C172.504 67.4324 171.763 66.9774 169.991 66.9803C169.111 66.9803 167.412 67.7571 167.432 65.7804C167.449 63.856 168.906 63.8299 170.263 64.0763C172.365 64.4588 172.927 63.5111 172.669 61.6272C172.597 61.1084 172.655 60.5665 172.684 60.039C172.742 59.0275 172.484 57.5899 174.16 57.9522C175.431 58.2276 177.484 57.9232 177.122 60.3665C177.058 60.8012 177.128 61.2591 177.038 61.6881C176.615 63.7053 177.383 64.6414 179.464 64.4849C179.988 64.4443 180.535 64.453 181.048 64.5574C181.789 64.711 183.045 64.0878 183.005 65.5862C182.967 66.9426 182.067 67.2151 180.831 67.2586C177.009 67.4006 176.966 67.4498 176.824 71.3335C176.688 75.0288 176.129 78.7299 176.899 82.4252C177.099 83.3874 177.209 84.5148 178.329 84.6887C179.409 84.8568 180.006 83.8714 180.547 83.0686C181.607 81.5064 182.186 79.8109 182.197 77.8778C182.215 75.1012 182.849 72.4493 184.481 70.1423C186.352 67.5049 188.862 67.0383 191.557 68.783C192.101 69.1337 192.246 69.554 193.106 68.8033C194.617 67.4846 196.69 68.8468 196.673 70.948C196.65 73.8637 196.589 76.7793 196.563 79.695C196.557 80.4891 196.473 81.3238 196.676 82.0687C197.014 83.3149 196.699 85.3872 198.685 85.1988C200.587 85.0191 200.929 83.1961 200.819 81.5354C200.59 78.0662 200.72 74.6636 202.304 71.4755C204.206 67.6469 206.733 66.8586 210.393 68.9772C210.856 69.2468 211.05 69.6061 211.542 68.9222C212.477 67.6237 213.673 68.5628 214.657 68.9019C215.769 69.2815 215.291 70.3916 215.294 71.2205C215.312 74.8375 215.303 78.4574 215.303 82.2918C217.058 80.9065 217.735 78.9096 218.534 77.0808C219.33 75.2578 220.5 73.5188 218.977 71.2147C218.056 69.8264 219.081 68.0092 220.798 67.4151C222.396 66.8615 223.618 67.4527 223.554 69.438C223.525 70.3568 223.951 70.4756 224.686 70.2061C224.851 70.1452 225.022 70.0844 225.193 70.0554C230.453 69.1366 230.833 69.5743 229.669 74.9216C229.104 77.5155 228.716 80.1384 229.405 82.7845C229.715 83.9786 229.973 85.451 231.597 85.2365C233.152 85.0336 233.65 83.6656 233.577 82.2542C233.47 80.1355 233.32 78.0256 233.568 75.907C233.841 73.5855 234.564 71.4465 236.099 69.6525C237.963 67.473 240.253 67.1049 242.65 68.6729C243.363 69.1395 243.525 69.4207 244.428 68.6323C245.725 67.502 247.923 69.0323 247.931 70.8814C247.949 74.5912 247.908 78.3009 247.931 82.0078C247.94 83.3207 247.882 84.9437 249.509 85.2133C251.18 85.4915 251.559 83.7845 252.068 82.6396C253.195 80.121 252.537 77.4141 252.668 74.7882C252.74 73.2898 252.665 71.7827 252.714 70.2843C252.746 69.3047 252.367 68.0063 254.188 68.2034C255.618 68.3599 256.822 68.5541 256.651 70.4843C256.527 71.8697 256.628 73.2753 256.628 75.2346C258.015 73.4405 258.125 71.7393 258.805 70.293C259.384 69.0584 259.795 67.8382 261.596 68.2063C263.313 68.557 264.268 69.4931 264.303 71.2495C264.341 73.2811 264.312 75.3128 264.312 77.8923C266.006 75.4983 266.04 73.0232 267.025 70.9335C267.656 69.5917 267.748 67.6643 270.131 68.2642C272.23 68.7917 273.136 69.8206 272.997 72.1769C272.789 75.6809 272.47 79.2284 273.281 82.7295C273.527 83.7931 273.747 85.0307 274.943 85.1379C276.266 85.2597 276.373 83.8395 276.83 82.9295C277.218 82.1556 276.816 80.492 278.061 80.7703C279.257 81.0398 278.481 82.402 278.301 83.2975C277.841 85.593 276.995 87.6131 274.231 87.7058C272.071 87.7783 270.131 85.7669 269.68 82.9526C269.176 79.8167 269.008 76.646 269.263 72.7247C267.114 76.6547 266.579 80.2602 266.063 83.8685C265.922 84.8539 266.341 86.1871 264.726 86.2567C263.348 86.3175 262.349 85.6364 261.976 84.2598C261.278 81.689 261.113 79.0516 261.023 76.4026C260.988 75.3621 260.893 74.3216 260.777 72.5189C258.331 76.7504 257.546 80.605 257.459 84.68C257.433 85.8306 258.168 87.4739 256.009 87.7261C254.228 87.9319 253.273 87.3464 252.587 85.4394C249.442 88.8622 247.089 88.5202 244.532 84.2627C240.745 88.7028 237.827 88.9115 234.391 84.9698C233.291 86.6943 231.973 88.0739 229.677 87.5725C227.344 87.0595 226.229 85.4017 225.592 83.2193C224.562 79.7008 225.491 76.2692 226.006 72.8406C223.766 72.174 222.602 72.8754 221.858 75.0926C220.85 78.0952 219.295 80.9384 217.205 83.3236C215.543 85.222 215.066 87.1986 215.28 89.6042C215.506 92.1604 215.289 94.7254 214.524 97.1976C213.96 99.0264 212.889 100.49 211.125 101.383C208.87 102.525 205.868 102.087 204.307 100.365C202.883 98.7917 202.903 96.2615 204.365 94.0211C205.931 91.6185 208.19 89.8853 210.225 87.9348C210.931 87.2624 212.124 86.7523 211.424 85.3727ZM237.364 79.4284C237.26 80.1297 237.575 81.4195 237.885 82.7034C238.163 83.8569 238.649 85.0075 239.915 85.2133C241.356 85.4451 242.161 84.3235 242.691 83.1932C244.205 79.9587 244.315 76.5533 243.539 73.1333C243.29 72.0407 242.674 70.9567 241.272 70.8698C239.819 70.7799 238.982 71.6523 238.464 72.8551C237.648 74.7419 237.457 76.7562 237.364 79.4284ZM192.805 77.1358C192.764 75.736 192.767 74.6114 192.437 73.4811C192.035 72.1131 191.499 70.9422 189.91 70.8698C188.456 70.8002 187.626 71.8523 187.206 73.029C186.027 76.333 185.851 79.724 186.844 83.1207C187.148 84.1641 187.683 85.1553 188.902 85.2481C189.974 85.3321 190.694 84.5757 191.204 83.7207C192.455 81.6136 192.79 79.2776 192.805 77.1358ZM204.802 78.6545C204.938 79.9645 204.947 81.3035 205.245 82.5788C205.52 83.7613 205.966 85.1003 207.44 85.2394C208.882 85.3756 209.698 84.2453 210.167 83.1063C211.502 79.8573 211.806 76.4808 210.984 73.0406C210.723 71.9566 210.231 71.0408 208.971 70.9017C207.657 70.7568 206.8 71.4697 206.201 72.5305C205.124 74.426 204.936 76.5272 204.802 78.6545ZM211.748 89.5346C209.539 91.6735 207.721 93.5255 206.65 95.963C205.943 97.5686 205.474 99.38 207.622 100.125C209.663 100.832 210.677 99.2786 211.149 97.5686C211.829 95.1196 212.032 92.601 211.748 89.5346Z" fill="#282828"/>
<path d="M129.008 91.2243C130.542 80.9529 129.428 70.8495 129.995 60.5201C125.846 63.6502 124.515 69.4294 126.579 73.9739C126.802 74.4666 127.583 75.0346 126.799 75.5447C126.504 75.736 125.803 75.4462 125.354 75.2346C123.113 74.1854 121.521 71.3422 121.958 68.8845C122.737 64.5139 124.917 60.9954 128.756 58.6594C131.883 56.7582 134.092 57.9696 134.095 61.5374C134.1 68.6932 134.069 75.8461 134.054 83.0019C134.048 85.1611 133.579 87.2044 132.36 89.0071C131.561 90.1896 130.62 91.2388 129.008 91.2243Z" fill="#282828"/>
</svg>
